<svg width="40" height="40" viewBox="0 0 40 40" fill="none" xmlns="http://www.w3.org/2000/svg">
<rect width="40" height="40" rx="6" fill="#474747"/>
<path d="M16 14H14C13.2044 14 12.4413 14.3161 11.8787 14.8787C11.3161 15.4413 11 16.2044 11 17V29C11 29.7957 11.3161 30.5587 11.8787 31.1213C12.4413 31.6839 13.2044 32 14 32H26C26.7956 32 27.5587 31.6839 28.1213 31.1213C28.6839 30.5587 29 29.7957 29 29V17C29 16.2044 28.6839 15.4413 28.1213 14.8787C27.5587 14.3161 26.7956 14 26 14H24M24 10L20 6M20 6L16 10M20 6V23" stroke="white" stroke-width="1.5" stroke-linecap="round" stroke-linejoin="round"/>
</svg>
