<svg width="15" height="15" viewBox="0 0 21 24" fill="none" xmlns="http://www.w3.org/2000/svg">
<path d="M19.7368 10.5779L2.6743 0.839104C2.38669 0.677767 2.0568 0.607754 1.72845 0.638365C1.4001 0.668977 1.08883 0.798764 0.836002 1.01049C0.583171 1.22221 0.400739 1.50584 0.312941 1.82371C0.225143 2.14158 0.236135 2.47864 0.344457 2.79012L3.49289 11.9785C3.49249 11.9819 3.49249 11.9853 3.49289 11.9886C3.49233 11.992 3.49233 11.9954 3.49289 11.9988L0.344457 21.2075C0.257708 21.4525 0.231 21.7147 0.266573 21.9722C0.302146 22.2297 0.398964 22.4749 0.548899 22.6872C0.698834 22.8995 0.897512 23.0728 1.12826 23.1924C1.359 23.3121 1.61508 23.3746 1.875 23.3748C2.15701 23.3741 2.43406 23.3006 2.67938 23.1615L19.7327 13.4064C19.9843 13.2655 20.1938 13.0602 20.3398 12.8116C20.4858 12.563 20.563 12.28 20.5636 11.9916C20.5641 11.7033 20.4879 11.42 20.3428 11.1709C20.1976 10.9217 19.9889 10.7157 19.7378 10.5739L19.7368 10.5779ZM1.875 21.7498V21.7407L4.9361 12.8123H10.8125C11.028 12.8123 11.2347 12.7267 11.387 12.5743C11.5394 12.422 11.625 12.2153 11.625 11.9998C11.625 11.7843 11.5394 11.5777 11.387 11.4253C11.2347 11.2729 11.028 11.1873 10.8125 11.1873H4.94422L1.8811 2.26199L1.875 2.24981L18.9375 11.9825L1.875 21.7498Z" fill="white"/>
</svg>
