<svg width="20" height="20" viewBox="0 0 20 20" fill="none" xmlns="http://www.w3.org/2000/svg">
<path d="M10 0.25C8.07164 0.25 6.18657 0.821828 4.58319 1.89317C2.97982 2.96451 1.73013 4.48726 0.992179 6.26884C0.254225 8.05042 0.061142 10.0108 0.437348 11.9021C0.813554 13.7934 1.74215 15.5307 3.10571 16.8943C4.46928 18.2579 6.20656 19.1865 8.09787 19.5627C9.98919 19.9389 11.9496 19.7458 13.7312 19.0078C15.5127 18.2699 17.0355 17.0202 18.1068 15.4168C19.1782 13.8134 19.75 11.9284 19.75 10C19.745 7.41566 18.7162 4.93859 16.8888 3.11118C15.0614 1.28378 12.5843 0.254956 10 0.25ZM13.5344 12.4656C13.6752 12.6078 13.7542 12.7999 13.7542 13C13.7542 13.2001 13.6752 13.3922 13.5344 13.5344C13.391 13.673 13.1994 13.7505 13 13.7505C12.8006 13.7505 12.609 13.673 12.4656 13.5344L10 11.0594L7.53438 13.5344C7.39102 13.673 7.19942 13.7505 7 13.7505C6.80059 13.7505 6.60898 13.673 6.46563 13.5344C6.32479 13.3922 6.24578 13.2001 6.24578 13C6.24578 12.7999 6.32479 12.6078 6.46563 12.4656L8.94063 10L6.46563 7.53437C6.34603 7.38865 6.28491 7.20366 6.29416 7.01537C6.30341 6.82708 6.38236 6.64896 6.51566 6.51566C6.64896 6.38236 6.82708 6.3034 7.01537 6.29416C7.20366 6.28491 7.38866 6.34603 7.53438 6.46563L10 8.94062L12.4656 6.46563C12.6114 6.34603 12.7963 6.28491 12.9846 6.29416C13.1729 6.3034 13.351 6.38236 13.4843 6.51566C13.6176 6.64896 13.6966 6.82708 13.7058 7.01537C13.7151 7.20366 13.654 7.38865 13.5344 7.53437L11.0594 10L13.5344 12.4656Z" fill="black" fill-opacity="0.51"/>
</svg>
