<svg width="68" height="77" viewBox="0 0 68 77" fill="none" xmlns="http://www.w3.org/2000/svg">
<path d="M2.80071 69.557H5.79071V71H0.98071V61.926H2.80071V69.557ZM16.2295 61.926C17.1828 61.926 18.0192 62.1123 18.7385 62.485C19.4665 62.8577 20.0255 63.3907 20.4155 64.084C20.8142 64.7687 21.0135 65.566 21.0135 66.476C21.0135 67.386 20.8142 68.1833 20.4155 68.868C20.0255 69.544 19.4665 70.0683 18.7385 70.441C18.0192 70.8137 17.1828 71 16.2295 71H13.0575V61.926H16.2295ZM16.1645 69.453C17.1178 69.453 17.8545 69.193 18.3745 68.673C18.8945 68.153 19.1545 67.4207 19.1545 66.476C19.1545 65.5313 18.8945 64.7947 18.3745 64.266C17.8545 63.7287 17.1178 63.46 16.1645 63.46H14.8775V69.453H16.1645ZM32.6979 71.091C31.8485 71.091 31.0685 70.8917 30.3579 70.493C29.6472 70.0943 29.0839 69.544 28.6679 68.842C28.2519 68.1313 28.0439 67.3297 28.0439 66.437C28.0439 65.553 28.2519 64.76 28.6679 64.058C29.0839 63.3473 29.6472 62.7927 30.3579 62.394C31.0685 61.9953 31.8485 61.796 32.6979 61.796C33.5559 61.796 34.3359 61.9953 35.0379 62.394C35.7485 62.7927 36.3075 63.3473 36.7149 64.058C37.1309 64.76 37.3389 65.553 37.3389 66.437C37.3389 67.3297 37.1309 68.1313 36.7149 68.842C36.3075 69.544 35.7485 70.0943 35.0379 70.493C34.3272 70.8917 33.5472 71.091 32.6979 71.091ZM32.6979 69.466C33.2439 69.466 33.7249 69.3447 34.1409 69.102C34.5569 68.8507 34.8819 68.4953 35.1159 68.036C35.3499 67.5767 35.4669 67.0437 35.4669 66.437C35.4669 65.8303 35.3499 65.3017 35.1159 64.851C34.8819 64.3917 34.5569 64.0407 34.1409 63.798C33.7249 63.5553 33.2439 63.434 32.6979 63.434C32.1519 63.434 31.6665 63.5553 31.2419 63.798C30.8259 64.0407 30.5009 64.3917 30.2669 64.851C30.0329 65.3017 29.9159 65.8303 29.9159 66.437C29.9159 67.0437 30.0329 67.5767 30.2669 68.036C30.5009 68.4953 30.8259 68.8507 31.2419 69.102C31.6665 69.3447 32.1519 69.466 32.6979 69.466ZM44.3609 66.45C44.3609 65.5573 44.5602 64.76 44.9589 64.058C45.3662 63.3473 45.9166 62.797 46.6099 62.407C47.3119 62.0083 48.0962 61.809 48.9629 61.809C49.9769 61.809 50.8652 62.069 51.6279 62.589C52.3906 63.109 52.9236 63.8283 53.2269 64.747H51.1339C50.9259 64.3137 50.6312 63.9887 50.2499 63.772C49.8772 63.5553 49.4439 63.447 48.9499 63.447C48.4212 63.447 47.9489 63.5727 47.5329 63.824C47.1256 64.0667 46.8049 64.4133 46.5709 64.864C46.3456 65.3147 46.2329 65.8433 46.2329 66.45C46.2329 67.048 46.3456 67.5767 46.5709 68.036C46.8049 68.4867 47.1256 68.8377 47.5329 69.089C47.9489 69.3317 48.4212 69.453 48.9499 69.453C49.4439 69.453 49.8772 69.3447 50.2499 69.128C50.6312 68.9027 50.9259 68.5733 51.1339 68.14H53.2269C52.9236 69.0673 52.3906 69.791 51.6279 70.311C50.8739 70.8223 49.9856 71.078 48.9629 71.078C48.0962 71.078 47.3119 70.883 46.6099 70.493C45.9166 70.0943 45.3662 69.544 44.9589 68.842C44.5602 68.14 44.3609 67.3427 44.3609 66.45ZM64.0244 71.091C63.3917 71.091 62.8197 70.9827 62.3084 70.766C61.8057 70.5493 61.4071 70.2373 61.1124 69.83C60.8177 69.4227 60.6661 68.9417 60.6574 68.387H62.6074C62.6334 68.7597 62.7634 69.0543 62.9974 69.271C63.2401 69.4877 63.5694 69.596 63.9854 69.596C64.4101 69.596 64.7437 69.4963 64.9864 69.297C65.2291 69.089 65.3504 68.8203 65.3504 68.491C65.3504 68.2223 65.2681 68.0013 65.1034 67.828C64.9387 67.6547 64.7307 67.5203 64.4794 67.425C64.2367 67.321 63.8987 67.2083 63.4654 67.087C62.8761 66.9137 62.3951 66.7447 62.0224 66.58C61.6584 66.4067 61.3421 66.151 61.0734 65.813C60.8134 65.4663 60.6834 65.007 60.6834 64.435C60.6834 63.8977 60.8177 63.4297 61.0864 63.031C61.3551 62.6323 61.7321 62.329 62.2174 62.121C62.7027 61.9043 63.2574 61.796 63.8814 61.796C64.8174 61.796 65.5757 62.0257 66.1564 62.485C66.7457 62.9357 67.0707 63.5683 67.1314 64.383H65.1294C65.1121 64.071 64.9777 63.8153 64.7264 63.616C64.4837 63.408 64.1587 63.304 63.7514 63.304C63.3961 63.304 63.1101 63.395 62.8934 63.577C62.6854 63.759 62.5814 64.0233 62.5814 64.37C62.5814 64.6127 62.6594 64.8163 62.8154 64.981C62.9801 65.137 63.1794 65.267 63.4134 65.371C63.6561 65.4663 63.9941 65.579 64.4274 65.709C65.0167 65.8823 65.4977 66.0557 65.8704 66.229C66.2431 66.4023 66.5637 66.6623 66.8324 67.009C67.1011 67.3557 67.2354 67.8107 67.2354 68.374C67.2354 68.8593 67.1097 69.31 66.8584 69.726C66.6071 70.142 66.2387 70.4757 65.7534 70.727C65.2681 70.9697 64.6917 71.091 64.0244 71.091Z" fill="#44372E"/>
<path d="M0 0H10.6577V44.2H6.8V3.72692H3.72692V47.2731H37.7923V37.3346H22.5V33.6077H41.5192V51H0V0Z" fill="#44372E"/>
<rect x="22" y="33" width="20" height="18" fill="white"/>
<path d="M42.4615 0H23.6308V7.25769H15V23.3423H27.8154V11.4423H42.2C49.9154 11.4423 56.1269 17.7192 56.1269 25.3692C56.1269 33.0846 49.85 39.2962 42.2 39.2962H27.8154V27.5269H15V43.6115H23.5654V50.8692H42.4615C56.5192 50.8692 67.8962 39.4269 67.8962 25.4346C67.8962 11.3769 56.5192 0 42.4615 0ZM23.6308 19.0269H19.3154V11.4423H23.6308V19.0269ZM23.6308 39.3615H19.3154V31.8423H23.6308V39.3615ZM42.4615 46.5538H27.8808V43.6115H42.2654C52.3346 43.6115 60.5077 35.4385 60.5077 25.3692C60.5077 15.3 52.3346 7.12692 42.2654 7.12692H27.8808V4.25H42.4615C54.1654 4.25 63.6462 13.7308 63.6462 25.4346C63.6462 37.0731 54.1654 46.5538 42.4615 46.5538Z" fill="#FF1F1F"/>
<path d="M27.8808 43.6116H23.6308V46.5539H27.8808V43.6116Z" fill="#B2135B"/>
<path d="M27.8808 36.4193H23.6308V39.3616H27.8808V36.4193Z" fill="#B2135B"/>
<path d="M27.8808 4.25H23.6308V7.19231H27.8808V4.25Z" fill="#B2135B"/>
<path d="M27.8808 11.4423H23.6308V14.3846H27.8808V11.4423Z" fill="#B2135B"/>
</svg>
