<svg width="38" height="29" viewBox="0 0 38 29" fill="none" xmlns="http://www.w3.org/2000/svg">
<path d="M0 0H6.01944V24.964H3.84062V2.10496H2.10496V26.6997H21.345V21.0865H11.8173V18.9815H23.45V28.8047H0V0ZM8.08746 0H10.0447V22.7852H19.4616V24.7425H8.08746V0Z" fill="white"/>
<path d="M23.6346 0H12.999V4.09913H8.12439V13.1837H15.3625V6.46258H23.4869C27.8445 6.46258 31.3528 10.0078 31.3528 14.3285C31.3528 18.6861 27.8076 22.1944 23.4869 22.1944H15.3625V15.5471H8.12439V24.6317H12.9621V28.7308H23.6346C31.5743 28.7308 38 22.2682 38 14.3654C38 6.42565 31.5743 0 23.6346 0ZM12.999 10.7464H10.5617V6.46258H12.999V10.7464ZM12.999 22.2313H10.5617V17.9844H12.999V22.2313ZM23.6346 26.2935H15.3994V24.6317H23.5238C29.2109 24.6317 33.827 20.0155 33.827 14.3285C33.827 8.6414 29.2109 4.02527 23.5238 4.02527H15.3994V2.40039H23.6346C30.2449 2.40039 35.5996 7.7551 35.5996 14.3654C35.5996 20.9388 30.2449 26.2935 23.6346 26.2935Z" fill="#FF1F1F"/>
<path d="M15.3994 24.6317H12.999V26.2935H15.3994V24.6317Z" fill="#791040"/>
<path d="M15.3994 20.5695H12.999V22.2313H15.3994V20.5695Z" fill="#791040"/>
<path d="M15.3994 2.40039H12.999V4.0622H15.3994V2.40039Z" fill="#791040"/>
<path d="M15.3994 6.46259H12.999V8.12439H15.3994V6.46259Z" fill="#791040"/>
</svg>
