<svg width="22" height="22" viewBox="0 0 22 22" fill="none" xmlns="http://www.w3.org/2000/svg">
<path d="M21.3188 21.3289C21.1671 21.4782 20.9629 21.5621 20.75 21.5625C20.5343 21.5616 20.3271 21.478 20.1711 21.3289L15.7836 16.9312C13.9358 18.4833 11.5601 19.2621 9.15197 19.1052C6.74389 18.9482 4.48937 17.8677 2.8586 16.0889C1.22783 14.3101 0.346742 11.9704 0.399087 9.5578C0.451432 7.14518 1.43317 4.84591 3.13955 3.13952C4.84594 1.43314 7.14521 0.451401 9.55783 0.399056C11.9704 0.346711 14.3101 1.2278 16.0889 2.85857C17.8677 4.48934 18.9482 6.74386 19.1052 9.15195C19.2621 11.56 18.4833 13.9357 16.9313 15.7836L21.3188 20.1711C21.3955 20.2467 21.4565 20.3368 21.4981 20.4362C21.5397 20.5356 21.5611 20.6422 21.5611 20.75C21.5611 20.8577 21.5397 20.9644 21.4981 21.0638C21.4565 21.1632 21.3955 21.2533 21.3188 21.3289ZM9.78125 17.5C11.3079 17.5 12.8002 17.0473 14.0696 16.1991C15.3389 15.351 16.3282 14.1455 16.9124 12.7351C17.4967 11.3246 17.6495 9.77266 17.3517 8.27537C17.0539 6.77808 16.3187 5.40273 15.2392 4.32324C14.1597 3.24376 12.7844 2.50862 11.2871 2.21079C9.78982 1.91296 8.23783 2.06582 6.82742 2.65003C5.417 3.23424 4.2115 4.22358 3.36335 5.49292C2.5152 6.76226 2.0625 8.2546 2.0625 9.78123C2.06519 11.8275 2.87928 13.7893 4.32624 15.2362C5.77321 16.6832 7.73494 17.4973 9.78125 17.5Z" fill="#B7B7B7"/>
</svg>
