<svg width="12" height="8" viewBox="0 0 12 8" fill="none" xmlns="http://www.w3.org/2000/svg">
<path fill-rule="evenodd" clip-rule="evenodd" d="M11.9655 4.16246C11.9655 4.16246 11.8538 4.41377 11.626 4.77563C11.626 4.77563 11.1771 5.48861 10.5828 6.08284C10.5828 6.08284 8.66568 8 6 8C6 8 3.33432 8 1.41716 6.08284C1.41716 6.08284 0.822922 5.48861 0.374007 4.77563C0.374007 4.77563 0.146168 4.41376 0.0344754 4.16246C-0.0114918 4.05903 -0.0114918 3.94097 0.0344754 3.83754C0.0344754 3.83754 0.146167 3.58624 0.374007 3.22437C0.374007 3.22437 0.822921 2.51139 1.41716 1.91716C1.41716 1.91716 3.33432 0 6 0C6 0 8.66568 0 10.5828 1.91716C10.5828 1.91716 11.1771 2.51139 11.626 3.22437C11.626 3.22437 11.8538 3.58623 11.9655 3.83754C12.0115 3.94097 12.0115 4.05903 11.9655 4.16246ZM10.949 4.34937C10.949 4.34937 11.0733 4.15194 11.1544 4C11.1544 4 11.0733 3.84806 10.949 3.65063C10.949 3.65063 10.5479 3.0136 10.0172 2.48284C10.0172 2.48284 8.33431 0.8 6 0.8C6 0.8 3.66569 0.8 1.98284 2.48284C1.98284 2.48284 1.45208 3.0136 1.05099 3.65063C1.05099 3.65063 0.926683 3.84806 0.845644 4C0.845644 4 0.926683 4.15194 1.05099 4.34937C1.05099 4.34937 1.45208 4.98639 1.98284 5.51716C1.98284 5.51716 3.66569 7.2 6 7.2C6 7.2 8.33431 7.2 10.0172 5.51716C10.0172 5.51716 10.5479 4.9864 10.949 4.34937Z" fill="#666666"/>
<path fill-rule="evenodd" clip-rule="evenodd" d="M6 1.6C6 1.6 6.99411 1.6 7.69706 2.30294C7.69706 2.30294 8.4 3.00589 8.4 4C8.4 4 8.4 4.99411 7.69706 5.69706C7.69706 5.69706 6.99411 6.4 6 6.4C6 6.4 5.00589 6.4 4.30294 5.69706C4.30294 5.69706 3.6 4.99411 3.6 4C3.6 4 3.6 3.00589 4.30294 2.30294C4.30294 2.30294 5.00589 1.6 6 1.6ZM6 2.4C6 2.4 5.33726 2.4 4.86863 2.86863C4.86863 2.86863 4.4 3.33726 4.4 4C4.4 4 4.4 4.66274 4.86863 5.13137C4.86863 5.13137 5.33726 5.6 6 5.6C6 5.6 6.66274 5.6 7.13137 5.13137C7.13137 5.13137 7.6 4.66274 7.6 4C7.6 4 7.6 3.33726 7.13137 2.86863C7.13137 2.86863 6.66274 2.4 6 2.4Z" fill="#666666"/>
</svg>
