<svg width="78" height="99" viewBox="0 0 78 99" fill="none" xmlns="http://www.w3.org/2000/svg">
<path d="M3.49334 98.8558C3.38668 98.8558 3.33334 98.8024 3.33334 98.6955V87.7947C3.33334 87.6878 3.38668 87.6343 3.49334 87.6343H7.36534C8.47468 87.6343 9.36001 87.9282 10.0213 88.516C10.6827 89.0931 11.0133 89.868 11.0133 90.8405V95.6497C11.0133 96.6222 10.6827 97.4024 10.0213 97.9902C9.36001 98.5673 8.47468 98.8558 7.36534 98.8558H3.49334ZM4.86934 97.4611C4.86934 97.5039 4.89068 97.5253 4.93334 97.5253H7.42934C8.04801 97.5253 8.53868 97.3382 8.90134 96.9642C9.27468 96.5795 9.46668 96.0665 9.47734 95.4252V91.0649C9.47734 90.4237 9.29068 89.916 8.91734 89.542C8.55468 89.1573 8.05868 88.9649 7.42934 88.9649H4.93334C4.89068 88.9649 4.86934 88.9863 4.86934 89.029V97.4611Z" fill="black"/>
<path d="M24.3607 99.0001C23.5821 99.0001 22.894 98.8398 22.2967 98.5192C21.6994 98.1986 21.2354 97.7497 20.9047 97.1726C20.5741 96.5848 20.4087 95.9115 20.4087 95.1527V91.3374C20.4087 90.5786 20.5741 89.9107 20.9047 89.3336C21.2354 88.7565 21.6994 88.3076 22.2967 87.987C22.894 87.6664 23.5821 87.5061 24.3607 87.5061C25.15 87.5061 25.8434 87.6664 26.4407 87.987C27.038 88.3076 27.5021 88.7565 27.8327 89.3336C28.1634 89.9107 28.3287 90.5786 28.3287 91.3374V95.1527C28.3287 95.9115 28.1634 96.5848 27.8327 97.1726C27.5021 97.7497 27.038 98.1986 26.4407 98.5192C25.8434 98.8398 25.15 99.0001 24.3607 99.0001ZM24.3607 97.6695C25.0861 97.6695 25.6727 97.4451 26.1207 96.9963C26.5687 96.5474 26.7927 95.9543 26.7927 95.2168V91.3214C26.7927 90.5733 26.5687 89.9748 26.1207 89.526C25.6727 89.0664 25.0861 88.8366 24.3607 88.8366C23.6354 88.8366 23.0487 89.0664 22.6007 89.526C22.1634 89.9748 21.9447 90.5733 21.9447 91.3214V95.2168C21.9447 95.9543 22.1634 96.5474 22.6007 96.9963C23.0487 97.4451 23.6354 97.6695 24.3607 97.6695Z" fill="black"/>
<path d="M37.5618 98.8558C37.4978 98.8558 37.4552 98.8398 37.4338 98.8077C37.4125 98.765 37.4178 98.7169 37.4498 98.6634L40.7458 93.2932C40.7672 93.2611 40.7672 93.229 40.7458 93.197L37.4498 87.8267C37.4285 87.784 37.4178 87.7519 37.4178 87.7305C37.4178 87.6664 37.4658 87.6343 37.5618 87.6343H38.8898C38.9645 87.6343 39.0285 87.6718 39.0818 87.7466L41.6578 91.9947C41.6685 92.0054 41.6845 92.0107 41.7058 92.0107C41.7272 92.0107 41.7432 92.0054 41.7538 91.9947L44.3298 87.7466C44.3832 87.6718 44.4472 87.6343 44.5218 87.6343H45.8338C45.8978 87.6343 45.9405 87.6557 45.9618 87.6985C45.9832 87.7305 45.9778 87.7733 45.9458 87.8267L42.6658 93.213C42.6552 93.2451 42.6552 93.2771 42.6658 93.3092L45.9458 98.6634C45.9672 98.7062 45.9778 98.7382 45.9778 98.7596C45.9778 98.8237 45.9298 98.8558 45.8338 98.8558H44.5218C44.4472 98.8558 44.3832 98.8184 44.3298 98.7436L41.7538 94.5115C41.7432 94.4901 41.7272 94.4794 41.7058 94.4794C41.6845 94.4794 41.6685 94.4901 41.6578 94.5115L39.0818 98.7436C39.0285 98.8184 38.9645 98.8558 38.8898 98.8558H37.5618Z" fill="black"/>
<path d="M55.5221 98.8558C55.4154 98.8558 55.3621 98.8024 55.3621 98.6955V87.7947C55.3621 87.6878 55.4154 87.6343 55.5221 87.6343H56.7381C56.8448 87.6343 56.8981 87.6878 56.8981 87.7947V98.6955C56.8981 98.8024 56.8448 98.8558 56.7381 98.8558H55.5221Z" fill="black"/>
<path d="M74.4783 88.8046C74.4783 88.9115 74.425 88.9649 74.3183 88.9649H68.6383C68.5957 88.9649 68.5743 88.9863 68.5743 89.029V92.4756C68.5743 92.5184 68.5957 92.5397 68.6383 92.5397H72.5423C72.649 92.5397 72.7023 92.5932 72.7023 92.7V93.71C72.7023 93.8168 72.649 93.8703 72.5423 93.8703H68.6383C68.5957 93.8703 68.5743 93.8916 68.5743 93.9344V97.4611C68.5743 97.5039 68.5957 97.5253 68.6383 97.5253H74.3183C74.425 97.5253 74.4783 97.5787 74.4783 97.6856V98.6955C74.4783 98.8024 74.425 98.8558 74.3183 98.8558H67.1983C67.0917 98.8558 67.0383 98.8024 67.0383 98.6955V87.7947C67.0383 87.6878 67.0917 87.6343 67.1983 87.6343H74.3183C74.425 87.6343 74.4783 87.6878 74.4783 87.7947V88.8046Z" fill="black"/>
<path d="M49.5772 75.0599C49.5772 69.2057 44.84 64.4695 39.0071 64.4695C33.1641 64.4695 28.4166 69.2057 28.4166 75.0599C28.4166 76.1372 28.5891 77.1637 28.8731 78.1394H49.1208C49.4251 77.1637 49.5772 76.1372 49.5772 75.0599Z" fill="#0E0C0D"/>
<path d="M3.04728 49.6682C8.83956 49.6682 13.5566 44.9828 13.6174 39.1794V38.966C13.5566 33.1524 8.83956 28.467 3.04728 28.467C1.99229 28.467 0.967737 28.6398 0.00404739 28.9244V49.221C0.967737 49.5157 1.99229 49.6682 3.04728 49.6682Z" fill="#0E0C0D"/>
<path d="M28.4218 3.02873C28.4218 8.88293 33.1591 13.6192 39.0021 13.6192C44.8451 13.6192 49.5824 8.88293 49.5824 3.02873C49.5824 1.97173 49.4201 0.965537 49.1259 0H28.8681C28.5841 0.965537 28.4218 1.97173 28.4218 3.02873Z" fill="#0E0C0D"/>
<path d="M39.0041 28.4741C33.1509 28.4741 28.4238 33.2205 28.4238 39.0645C28.4238 44.9187 33.1509 49.6752 39.0041 49.6752C44.8471 49.6752 49.5742 44.9187 49.5742 39.0645C49.5742 33.2205 44.8471 28.4741 39.0041 28.4741Z" fill="#0E0C0D"/>
<path d="M39.0041 49.6683C33.1509 49.6683 28.4238 44.9219 28.4238 39.0779C28.4238 33.2237 33.1509 28.4671 39.0041 28.4671C44.8471 28.4671 49.5742 33.2237 49.5742 39.0779C49.5742 44.9219 44.8471 49.6683 39.0041 49.6683ZM39.0041 23.7817C30.5845 23.7817 23.7473 30.6218 23.7473 39.0779C23.7473 47.5136 30.5845 54.3537 39.0041 54.3537C47.4237 54.3537 54.2608 47.5136 54.2608 39.0779C54.2608 30.6218 47.4237 23.7817 39.0041 23.7817Z" fill="#FF1F1F"/>
<path d="M39.0041 18.3106C47.4237 18.3106 54.2608 11.4706 54.2608 3.02468C54.2608 1.988 54.1593 0.981803 53.9565 0.00610352H49.1279C49.4221 0.961477 49.5742 1.97783 49.5742 3.02468C49.5742 8.87888 44.8471 13.6252 39.0041 13.6252C33.1509 13.6252 28.4238 8.87888 28.4238 3.02468C28.4238 1.97783 28.5861 0.961477 28.8701 0.00610352H24.0517C23.8488 0.981803 23.7473 1.988 23.7473 3.02468C23.7473 11.4706 30.5845 18.3106 39.0041 18.3106Z" fill="white"/>
<path d="M39.0041 59.783C30.5845 59.783 23.7473 66.623 23.7473 75.0588C23.7473 76.1158 23.8488 77.1423 24.0517 78.1383H28.8802C28.5861 77.1626 28.4238 76.1259 28.4238 75.0588C28.4238 69.2045 33.1509 64.4582 39.0041 64.4582C44.8471 64.4582 49.5742 69.2045 49.5742 75.0588C49.5742 76.1259 49.4119 77.1626 49.1177 78.1383H53.9463C54.1492 77.1423 54.2608 76.1158 54.2608 75.0588C54.2608 66.623 47.4237 59.783 39.0041 59.783Z" fill="white"/>
<path fill-rule="evenodd" clip-rule="evenodd" d="M39.0041 54.3537C30.5845 54.3537 23.7473 47.5137 23.7473 39.0678C23.7473 30.632 30.5845 23.792 39.0041 23.792C47.4237 23.792 54.2608 30.632 54.2608 39.0678C54.2608 47.5137 47.4237 54.3537 39.0041 54.3537ZM77.998 5.57889V24.0965L78 24.0969V28.9245C77.0363 28.64 76.0118 28.4672 74.9466 28.4672C71.9314 28.4672 69.2133 29.7338 67.2887 31.7643C69.2146 29.7406 71.9318 28.4804 74.9405 28.4804C76.0057 28.4804 77.0302 28.6328 77.9939 28.9276V49.214C77.0302 49.5087 76.0057 49.6612 74.9405 49.6612C71.7827 49.6612 68.946 48.2731 67.0083 46.0709C68.9445 48.2759 71.7819 49.6683 74.9466 49.6683C76.0118 49.6683 77.0363 49.5159 78 49.2211V54.0488L77.998 54.0492V72.516C77.998 75.5854 75.4823 78.0957 72.4187 78.0957H53.9463C54.1492 77.1099 54.2608 76.0834 54.2608 75.0162C54.2608 66.5906 47.4237 59.7404 39.0041 59.7404C30.5845 59.7404 23.7473 66.5906 23.7473 75.0162C23.7473 76.0834 23.8488 77.1099 24.0517 78.0957H5.57926C2.51574 78.0957 0 75.5854 0 72.516V54.0082C0.994122 54.2013 2.00853 54.3131 3.05337 54.3131C11.4121 54.3131 18.2087 47.5645 18.2898 39.1999C18.2898 39.1891 18.2911 39.1821 18.2927 39.1731C18.2957 39.1567 18.3 39.1334 18.3 39.0678C18.3 39.0474 18.2898 38.9458 18.2898 38.9458V11.0469H13.6134V28.0708C10.8846 25.4283 7.15159 23.792 3.05337 23.792C2.00853 23.792 0.994122 23.8936 0 24.0969V5.57889C0 2.51966 2.51574 0.00927734 5.57926 0.00927734H24.0517C23.8488 0.98498 23.7473 2.00133 23.7473 3.02785C23.7473 11.4636 30.5845 18.3138 39.0041 18.3138C47.4237 18.3138 54.2608 11.4636 54.2608 3.02785C54.2608 2.00133 54.1594 0.98498 53.9565 0.00927734H72.4187C75.4823 0.00927734 77.998 2.51966 77.998 5.57889Z" fill="#0E0C0D"/>
<path d="M18.2897 39.2363C18.2897 39.2363 18.2999 39.1347 18.2999 39.1144C18.2999 39.1144 18.2897 39.0128 18.2897 38.9823V11.0935H13.6234V28.1174C10.8744 25.4647 7.15151 23.8284 3.04315 23.8284C1.9983 23.8284 0.983893 23.9301 0.0100594 24.1333V28.961C0.963605 28.6764 1.9983 28.5138 3.04315 28.5138C8.84557 28.5138 13.5524 33.2094 13.6234 39.0026V39.2262C13.5524 45.0194 8.84557 49.7048 3.04315 49.7048C1.9983 49.7048 0.963605 49.5523 0.0100594 49.2677V54.0954C0.983893 54.2886 1.9983 54.3902 3.04315 54.3902C11.412 54.3902 18.1984 47.6416 18.2897 39.277" fill="#FF1F1F"/>
<path fill-rule="evenodd" clip-rule="evenodd" d="M70.7273 34.7633L63.8939 23.3779H57.4545L67.1364 38.9228L57.3333 54.4677H63.8182L70.7273 43.1582H70.9697L77.8788 54.4677H78V44.2338L74.6818 38.9228L78 33.5277V23.3779H77.8333L70.9697 34.7633H70.7273Z" fill="#FF1F1F"/>
</svg>
