<svg width="119" height="41" viewBox="0 0 119 41" fill="none" xmlns="http://www.w3.org/2000/svg">
<path d="M26.0134 39.3842C26.0134 36.3125 23.5277 33.8274 20.4672 33.8274C17.4013 33.8274 14.9103 36.3125 14.9103 39.3842C14.9103 39.9495 15.0008 40.4881 15.1499 41.0001H25.7739C25.9335 40.4881 26.0134 39.9495 26.0134 39.3842Z" fill="#0E0C0D"/>
<path d="M1.59893 26.0611C4.63816 26.0611 7.1132 23.6027 7.14513 20.5576V20.4456C7.1132 17.3952 4.63816 14.9368 1.59893 14.9368C1.04538 14.9368 0.507788 15.0274 0.00213623 15.1767V25.8264C0.507788 25.9811 1.04538 26.0611 1.59893 26.0611Z" fill="#0E0C0D"/>
<path d="M14.913 1.58919C14.913 4.66091 17.3987 7.14603 20.4645 7.14603C23.5304 7.14603 26.0161 4.66091 26.0161 1.58919C26.0161 1.03457 25.9309 0.506621 25.7766 0H15.1472C14.9982 0.506621 14.913 1.03457 14.913 1.58919Z" fill="#0E0C0D"/>
<path d="M20.4656 14.9404C17.3944 14.9404 14.9141 17.4309 14.9141 20.4973C14.9141 23.569 17.3944 26.0647 20.4656 26.0647C23.5314 26.0647 26.0118 23.569 26.0118 20.4973C26.0118 17.4309 23.5314 14.9404 20.4656 14.9404Z" fill="#0E0C0D"/>
<path d="M20.4656 26.061C17.3944 26.061 14.9141 23.5706 14.9141 20.5042C14.9141 17.4325 17.3944 14.9367 20.4656 14.9367C23.5314 14.9367 26.0118 17.4325 26.0118 20.5042C26.0118 23.5706 23.5314 26.061 20.4656 26.061ZM20.4656 12.4783C16.0478 12.4783 12.4603 16.0673 12.4603 20.5042C12.4603 24.9305 16.0478 28.5195 20.4656 28.5195C24.8834 28.5195 28.4709 24.9305 28.4709 20.5042C28.4709 16.0673 24.8834 12.4783 20.4656 12.4783Z" fill="#FF1F1F"/>
<path d="M20.4656 9.60764C24.8834 9.60764 28.4709 6.01863 28.4709 1.58703C28.4709 1.04308 28.4176 0.515127 28.3112 0.00317383H25.7776C25.932 0.504462 26.0118 1.03775 26.0118 1.58703C26.0118 4.65875 23.5314 7.14919 20.4656 7.14919C17.3944 7.14919 14.9141 4.65875 14.9141 1.58703C14.9141 1.03775 14.9992 0.504462 15.1483 0.00317383H12.62C12.5136 0.515127 12.4603 1.04308 12.4603 1.58703C12.4603 6.01863 16.0478 9.60764 20.4656 9.60764Z" fill="white"/>
<path d="M20.4656 31.3684C16.0478 31.3684 12.4603 34.9574 12.4603 39.3837C12.4603 39.9383 12.5136 40.4769 12.62 40.9995H15.1536C14.9992 40.4876 14.9141 39.9436 14.9141 39.3837C14.9141 36.312 17.3944 33.8215 20.4656 33.8215C23.5314 33.8215 26.0118 36.312 26.0118 39.3837C26.0118 39.9436 25.9266 40.4876 25.7723 40.9995H28.3059C28.4123 40.4769 28.4709 39.9383 28.4709 39.3837C28.4709 34.9574 24.8834 31.3684 20.4656 31.3684Z" fill="white"/>
<path fill-rule="evenodd" clip-rule="evenodd" d="M20.4656 28.5196C16.0478 28.5196 12.4603 24.9306 12.4603 20.499C12.4603 16.0728 16.0478 12.4837 20.4656 12.4837C24.8834 12.4837 28.4709 16.0728 28.4709 20.499C28.4709 24.9306 24.8834 28.5196 20.4656 28.5196ZM40.9259 2.92728V12.6435L40.9269 12.6437V15.1768C40.4212 15.0275 39.8837 14.9368 39.3248 14.9368C37.7328 14.9368 36.2987 15.6097 35.2878 16.6868C36.2994 15.6133 37.7331 14.9438 39.3216 14.9438C39.8805 14.9438 40.4181 15.0238 40.9237 15.1785V25.8228C40.4181 25.9775 39.8805 26.0575 39.3216 26.0575C37.676 26.0575 36.1966 25.339 35.1805 24.1973C36.1959 25.3405 37.6756 26.0611 39.3248 26.0611C39.8837 26.0611 40.4212 25.9811 40.9269 25.8265V28.3596L40.9259 28.3598V38.0494C40.9259 39.66 39.6058 40.9771 37.9984 40.9771H28.3059C28.4123 40.4599 28.4709 39.9213 28.4709 39.3613C28.4709 34.9404 24.8834 31.346 20.4656 31.346C16.0478 31.346 12.4603 34.9404 12.4603 39.3613C12.4603 39.9213 12.5136 40.4599 12.62 40.9771H2.92746C1.32002 40.9771 0 39.66 0 38.0494V28.3383C0.52162 28.4396 1.05388 28.4983 1.60212 28.4983C5.98798 28.4983 9.55416 24.9573 9.59674 20.5683C9.59674 20.5627 9.59741 20.559 9.59827 20.5543C9.59984 20.5457 9.60206 20.5335 9.60206 20.499C9.60206 20.4884 9.59674 20.435 9.59674 20.435V5.79636H7.143V14.7289C5.7112 13.3423 3.75247 12.4837 1.60212 12.4837C1.05388 12.4837 0.52162 12.5371 0 12.6437V2.92728C0 1.32209 1.32002 0.00488281 2.92746 0.00488281H12.62C12.5136 0.516838 12.4603 1.05012 12.4603 1.58874C12.4603 6.01501 16.0478 9.60935 20.4656 9.60935C24.8834 9.60935 28.4709 6.01501 28.4709 1.58874C28.4709 1.05012 28.4176 0.516838 28.3112 0.00488281H37.9984C39.6058 0.00488281 40.9259 1.32209 40.9259 2.92728Z" fill="#0E0C0D"/>
<path d="M9.59673 20.5875C9.59673 20.5875 9.60205 20.5341 9.60205 20.5235C9.60205 20.5235 9.59673 20.4701 9.59673 20.4541V5.8208H7.14831V14.7533C5.70587 13.3614 3.75246 12.5029 1.59678 12.5029C1.04855 12.5029 0.516285 12.5562 0.00531006 12.6628V15.1959C0.505639 15.0466 1.04855 14.9613 1.59678 14.9613C4.64134 14.9613 7.11105 17.4251 7.14831 20.4648V20.5821C7.11105 23.6219 4.64134 26.0803 1.59678 26.0803C1.04855 26.0803 0.505639 26.0003 0.00531006 25.851V28.3841C0.516285 28.4854 1.04855 28.5387 1.59678 28.5387C5.98797 28.5387 9.54882 24.9977 9.59673 20.6088" fill="#FF1F1F"/>
<path fill-rule="evenodd" clip-rule="evenodd" d="M37.1109 18.2406L33.5254 12.2666H30.1466L35.2267 20.4231L30.083 28.5795H33.4856L37.1109 22.6454H37.2381L40.8633 28.5795H40.9269V23.2097L39.1858 20.4231L40.9269 17.5922V12.2666H40.8394L37.2381 18.2406H37.1109Z" fill="#FF1F1F"/>
<path d="M47.0869 26.1026C46.9802 26.1026 46.9269 26.0492 46.9269 25.9423V15.0415C46.9269 14.9346 46.9802 14.8812 47.0869 14.8812H50.9589C52.0682 14.8812 52.9535 15.1751 53.6149 15.7629C54.2762 16.34 54.6069 17.1148 54.6069 18.0873V22.8965C54.6069 23.869 54.2762 24.6492 53.6149 25.237C52.9535 25.8141 52.0682 26.1026 50.9589 26.1026H47.0869ZM48.4629 24.708C48.4629 24.7507 48.4842 24.7721 48.5269 24.7721H51.0229C51.6415 24.7721 52.1322 24.5851 52.4949 24.211C52.8682 23.8263 53.0602 23.3133 53.0709 22.6721V18.3117C53.0709 17.6705 52.8842 17.1629 52.5109 16.7888C52.1482 16.4041 51.6522 16.2117 51.0229 16.2117H48.5269C48.4842 16.2117 48.4629 16.2331 48.4629 16.2758V24.708Z" fill="black"/>
<path d="M67.9543 26.2469C67.1756 26.2469 66.4876 26.0866 65.8903 25.766C65.2929 25.4454 64.8289 24.9965 64.4983 24.4194C64.1676 23.8316 64.0023 23.1583 64.0023 22.3996V18.5843C64.0023 17.8255 64.1676 17.1575 64.4983 16.5804C64.8289 16.0033 65.2929 15.5545 65.8903 15.2338C66.4876 14.9132 67.1756 14.7529 67.9543 14.7529C68.7436 14.7529 69.4369 14.9132 70.0343 15.2338C70.6316 15.5545 71.0956 16.0033 71.4263 16.5804C71.7569 17.1575 71.9223 17.8255 71.9223 18.5843V22.3996C71.9223 23.1583 71.7569 23.8316 71.4263 24.4194C71.0956 24.9965 70.6316 25.4454 70.0343 25.766C69.4369 26.0866 68.7436 26.2469 67.9543 26.2469ZM67.9543 24.9164C68.6796 24.9164 69.2663 24.6919 69.7143 24.2431C70.1623 23.7942 70.3863 23.2011 70.3863 22.4637V18.5682C70.3863 17.8201 70.1623 17.2217 69.7143 16.7728C69.2663 16.3132 68.6796 16.0835 67.9543 16.0835C67.2289 16.0835 66.6423 16.3132 66.1943 16.7728C65.7569 17.2217 65.5383 17.8201 65.5383 18.5682V22.4637C65.5383 23.2011 65.7569 23.7942 66.1943 24.2431C66.6423 24.6919 67.2289 24.9164 67.9543 24.9164Z" fill="black"/>
<path d="M81.1554 26.1026C81.0914 26.1026 81.0487 26.0866 81.0274 26.0545C81.006 26.0118 81.0114 25.9637 81.0434 25.9103L84.3394 20.54C84.3607 20.5079 84.3607 20.4759 84.3394 20.4438L81.0434 15.0735C81.022 15.0308 81.0114 14.9987 81.0114 14.9774C81.0114 14.9132 81.0594 14.8812 81.1554 14.8812H82.4834C82.558 14.8812 82.622 14.9186 82.6754 14.9934L85.2514 19.2415C85.262 19.2522 85.278 19.2575 85.2994 19.2575C85.3207 19.2575 85.3367 19.2522 85.3474 19.2415L87.9234 14.9934C87.9767 14.9186 88.0407 14.8812 88.1154 14.8812H89.4274C89.4914 14.8812 89.534 14.9025 89.5554 14.9453C89.5767 14.9774 89.5714 15.0201 89.5394 15.0735L86.2594 20.4598C86.2487 20.4919 86.2487 20.524 86.2594 20.556L89.5394 25.9103C89.5607 25.953 89.5714 25.9851 89.5714 26.0064C89.5714 26.0706 89.5234 26.1026 89.4274 26.1026H88.1154C88.0407 26.1026 87.9767 26.0652 87.9234 25.9904L85.3474 21.7583C85.3367 21.737 85.3207 21.7263 85.2994 21.7263C85.278 21.7263 85.262 21.737 85.2514 21.7583L82.6754 25.9904C82.622 26.0652 82.558 26.1026 82.4834 26.1026H81.1554Z" fill="black"/>
<path d="M99.1156 26.1026C99.009 26.1026 98.9556 26.0492 98.9556 25.9423V15.0415C98.9556 14.9346 99.009 14.8812 99.1156 14.8812H100.332C100.438 14.8812 100.492 14.9346 100.492 15.0415V25.9423C100.492 26.0492 100.438 26.1026 100.332 26.1026H99.1156Z" fill="black"/>
<path d="M118.072 16.0514C118.072 16.1583 118.019 16.2117 117.912 16.2117H112.232C112.189 16.2117 112.168 16.2331 112.168 16.2758V19.7224C112.168 19.7652 112.189 19.7866 112.232 19.7866H116.136C116.243 19.7866 116.296 19.84 116.296 19.9469V20.9568C116.296 21.0637 116.243 21.1171 116.136 21.1171H112.232C112.189 21.1171 112.168 21.1385 112.168 21.1812V24.708C112.168 24.7507 112.189 24.7721 112.232 24.7721H117.912C118.019 24.7721 118.072 24.8255 118.072 24.9324V25.9423C118.072 26.0492 118.019 26.1026 117.912 26.1026H110.792C110.685 26.1026 110.632 26.0492 110.632 25.9423V15.0415C110.632 14.9346 110.685 14.8812 110.792 14.8812H117.912C118.019 14.8812 118.072 14.9346 118.072 15.0415V16.0514Z" fill="black"/>
</svg>
